<?xml version="1.0" encoding="UTF-8" standalone="no"?>
<svg
   xmlns:dc="http://purl.org/dc/elements/1.1/"
   xmlns:cc="http://creativecommons.org/ns#"
   xmlns:rdf="http://www.w3.org/1999/02/22-rdf-syntax-ns#"
   xmlns:svg="http://www.w3.org/2000/svg"
   xmlns="http://www.w3.org/2000/svg"
   viewBox="0 0 278.33334 133.33333"
   height="133.33333"
   width="278.33334"
   xml:space="preserve"
   id="svg2"
   version="1.1"><metadata
     id="metadata8"><rdf:RDF><cc:Work
         rdf:about=""><dc:format>image/svg+xml</dc:format><dc:type
           rdf:resource="http://purl.org/dc/dcmitype/StillImage" /></cc:Work></rdf:RDF></metadata><defs
     id="defs6"><clipPath
       id="clipPath18"
       clipPathUnits="userSpaceOnUse"><path
         id="path16"
         d="M 0,100 H 208.75 V 0 H 0 Z" /></clipPath></defs><g
     transform="matrix(1.3333333,0,0,-1.3333333,0,133.33333)"
     id="g10"><g
       id="g12"><g
         clip-path="url(#clipPath18)"
         id="g14"><g
           transform="translate(134.7108,64.8886)"
           id="g20"><path
             id="path22"
             style="fill:#424143;fill-opacity:1;fill-rule:nonzero;stroke:none"
             d="m 0,0 -30.267,30.267 v -0.726 c 0,-4.189 0.018,-8.378 -0.025,-12.567 -0.005,-0.468 -0.243,-1.043 -0.569,-1.379 -2.171,-2.242 -4.406,-4.42 -6.586,-6.653 -0.276,-0.283 -0.49,-0.765 -0.493,-1.156 -0.033,-4.751 -0.022,-9.503 -0.019,-14.254 0,-0.173 0.04,-0.345 0.061,-0.518 0.087,-0.059 0.173,-0.118 0.26,-0.177 4.667,4.667 9.335,9.335 13.991,13.991 0,-4.283 0.009,-8.612 -0.02,-12.941 -0.002,-0.312 -0.219,-0.687 -0.449,-0.922 -1.83,-1.868 -3.676,-3.72 -5.545,-5.548 -0.436,-0.427 -0.622,-0.856 -0.619,-1.473 0.023,-5.173 0.012,-10.346 0.015,-15.519 0,-0.237 0.026,-0.474 0.036,-0.654 C -20.11,-20.11 -10,-10 0,0 m -63.36,0.054 c 10.973,11.023 21.98,22.08 32.925,33.075 11.078,-11.078 22.123,-22.122 33.123,-33.123 -10.949,-10.949 -21.996,-21.996 -33,-33 -10.996,10.996 -22.044,22.044 -33.048,33.048" /></g><g
           transform="translate(187.3202,22.7741)"
           id="g24"><path
             id="path26"
             style="fill:#424143;fill-opacity:1;fill-rule:nonzero;stroke:none"
             d="m 0,0 c -0.31,-1.765 -0.614,-3.495 -0.926,-5.269 -2.652,0 -5.236,0 -7.821,0 -1.321,0 -2.643,-0.027 -3.964,0.009 -0.876,0.024 -1.415,-0.355 -1.567,-1.193 -0.471,-2.594 -0.92,-5.193 -1.354,-7.794 -0.103,-0.622 0.071,-1.172 0.831,-1.181 2.019,-0.024 4.039,-0.008 6.113,-0.008 0.139,0.85 0.269,1.64 0.414,2.527 h -3.082 c 0.291,1.693 0.554,3.296 0.859,4.892 0.033,0.174 0.301,0.433 0.462,0.435 2.861,0.026 5.722,0.019 8.696,0.019 -0.786,-4.432 -1.553,-8.759 -2.333,-13.16 h -0.871 c -3.824,0 -7.648,-0.005 -11.472,10e-4 -3.82,0.006 -6.27,2.981 -5.569,6.722 0.491,2.621 0.9,5.257 1.428,7.87 0.667,3.296 4.088,6.141 7.437,6.177 4.077,0.044 8.154,0.011 12.231,0.009 C -0.352,0.055 -0.216,0.025 0,0" /></g><g
           transform="translate(146.9023,22.8261)"
           id="g28"><path
             id="path30"
             style="fill:#424143;fill-opacity:1;fill-rule:nonzero;stroke:none"
             d="m 0,0 c 4.382,0 8.656,0.086 12.925,-0.028 3.339,-0.089 5.509,-3.08 5.053,-6.426 -0.369,-2.711 -1.385,-4.955 -3.688,-6.409 0.695,-2.626 1.374,-5.191 2.077,-7.848 h -5.989 c -0.401,1.579 -0.816,3.2 -1.225,4.823 -0.369,1.465 -0.478,1.552 -2.003,1.552 -0.588,0 -1.176,0 -1.864,0 0.29,1.705 0.551,3.351 0.876,4.984 0.033,0.168 0.443,0.363 0.684,0.371 1.152,0.039 2.307,0.055 3.457,0.004 0.749,-0.033 1.195,0.293 1.381,0.957 0.158,0.563 0.256,1.152 0.302,1.736 0.048,0.594 -0.243,0.962 -0.89,0.961 C 9.24,-5.324 7.384,-5.336 5.529,-5.313 5.016,-5.306 4.957,-5.583 4.887,-5.983 4.051,-10.795 3.199,-15.604 2.35,-20.413 2.336,-20.493 2.301,-20.571 2.256,-20.711 H -3.646 C -2.431,-13.808 -1.221,-6.935 0,0" /></g><g
           transform="translate(132.5657,7.3357)"
           id="g32"><path
             id="path34"
             style="fill:#424143;fill-opacity:1;fill-rule:nonzero;stroke:none"
             d="M 0,0 C 0.702,0 1.405,-0.002 2.107,0 3.203,0.005 3.663,0.349 3.851,1.407 4.298,3.92 4.723,6.436 5.141,8.954 5.284,9.813 4.985,10.159 4.118,10.166 2.572,10.178 1.027,10.15 -0.518,10.177 -1.372,10.192 -1.834,9.762 -2.007,8.991 -2.184,8.198 -2.305,7.393 -2.446,6.592 -2.747,4.879 -3.055,3.168 -3.341,1.453 -3.516,0.407 -3.191,0.011 -2.191,0.001 -1.461,-0.006 -0.73,0 0,0 m -0.921,-5.353 c -1.427,0.072 -2.891,-0.032 -4.274,0.253 -2.985,0.616 -4.661,3.248 -4.147,6.244 0.455,2.654 0.927,5.306 1.415,7.955 0.634,3.442 4.102,6.357 7.605,6.394 1.939,0.021 3.879,0.007 5.818,0.003 3.789,-0.007 6.241,-2.87 5.626,-6.605 C 10.698,6.316 10.248,3.746 9.768,1.181 9.099,-2.397 5.604,-5.269 1.948,-5.284 0.993,-5.288 0.037,-5.285 -0.918,-5.285 -0.919,-5.308 -0.92,-5.331 -0.921,-5.353" /></g><g
           transform="translate(204.105,7.3359)"
           id="g36"><path
             id="path38"
             style="fill:#424143;fill-opacity:1;fill-rule:nonzero;stroke:none"
             d="m 0,0 c -0.295,-1.67 -0.558,-3.247 -0.871,-4.813 -0.037,-0.185 -0.348,-0.45 -0.533,-0.451 -3.683,-0.018 -7.372,-0.114 -11.049,0.04 -3.055,0.128 -5.168,2.829 -4.766,6.075 0.368,2.976 0.907,5.942 1.578,8.866 0.691,3.007 3.837,5.608 6.992,5.73 3.759,0.145 7.527,0.034 11.38,0.034 C 2.433,13.807 2.167,12.184 1.827,10.576 1.79,10.402 1.329,10.211 1.062,10.209 -1.834,10.183 -4.73,10.193 -7.626,10.193 c -1.952,0 -2.283,-0.32 -2.426,-2.427 H 1.357 C 1.065,6.072 0.814,4.467 0.481,2.88 0.439,2.683 -0.039,2.453 -0.316,2.45 -3.578,2.42 -6.84,2.431 -10.102,2.431 c -0.303,0 -0.606,0 -0.851,0 C -11.037,2.283 -11.08,2.238 -11.09,2.186 -11.506,0.173 -11.364,0 -9.309,0 -6.526,0 -3.742,0 -0.958,0 -0.655,0 -0.352,0 0,0" /></g><g
           transform="translate(95.9272,9.7731)"
           id="g40"><path
             id="path42"
             style="fill:#424143;fill-opacity:1;fill-rule:nonzero;stroke:none"
             d="m 0,0 h -7.194 c -0.462,-2.563 -0.923,-5.119 -1.384,-7.675 h -5.928 c 0.615,3.48 1.222,6.901 1.824,10.324 0.603,3.427 1.202,6.854 1.813,10.345 h 5.932 C -5.375,10.451 -5.807,7.94 -6.251,5.36 h 7.197 c 0.451,2.507 0.909,5.059 1.375,7.651 H 8.222 C 7.005,6.094 5.796,-0.78 4.582,-7.683 H -1.347 C -0.895,-5.103 -0.452,-2.576 0,0" /></g><g
           transform="translate(82.1758,22.8323)"
           id="g44"><path
             id="path46"
             style="fill:#424143;fill-opacity:1;fill-rule:nonzero;stroke:none"
             d="m 0,0 c -0.306,-1.708 -0.576,-3.335 -0.92,-4.946 -0.036,-0.174 -0.499,-0.363 -0.765,-0.365 -3.149,-0.025 -6.299,-0.03 -9.448,-0.006 -0.75,0.006 -1.241,-0.272 -1.496,-0.966 -0.315,-0.857 0.086,-1.443 0.998,-1.45 1.884,-0.014 3.771,0.043 5.651,-0.041 2.834,-0.126 4.931,-2.217 5.12,-5.053 0.142,-2.152 -0.676,-3.968 -2.19,-5.448 -1.668,-1.63 -3.636,-2.561 -6.046,-2.52 -3.373,0.057 -6.748,0.014 -10.122,0.014 -0.302,0 -0.605,0 -0.999,0 0.325,1.813 0.631,3.518 0.949,5.285 h 0.961 c 3.29,0 6.58,0.01 9.87,-0.007 0.835,-0.004 1.32,0.374 1.521,1.157 0.209,0.813 -0.11,1.242 -0.953,1.254 -1.911,0.028 -3.831,-0.071 -5.731,0.085 -3.715,0.306 -5.832,3.37 -4.939,6.974 0.827,3.335 4.232,6.021 7.67,6.031 C -7.523,0.008 -4.177,0 -0.83,0 -0.582,0 -0.333,0 0,0" /></g><g
           transform="translate(53.1275,10.4522)"
           id="g48"><path
             id="path50"
             style="fill:#424143;fill-opacity:1;fill-rule:nonzero;stroke:none"
             d="M 0,0 C -0.217,2.322 -0.414,4.55 -0.647,6.775 -0.672,7.012 -0.898,7.227 -1.032,7.453 -1.278,7.307 -1.652,7.22 -1.751,7.005 -2.821,4.709 -3.846,2.392 -4.921,0 Z M 6.879,-8.361 H 0.774 c -0.099,0.99 -0.194,1.958 -0.297,2.995 -2.525,0 -4.992,0.005 -7.459,-0.013 -0.155,-0.001 -0.322,-0.163 -0.457,-0.281 -0.077,-0.067 -0.102,-0.196 -0.149,-0.298 -0.363,-0.789 -0.526,-1.914 -1.141,-2.279 -0.692,-0.411 -1.79,-0.15 -2.712,-0.161 -1.066,-0.013 -2.131,-0.003 -3.299,-0.003 0.111,0.305 0.178,0.536 0.275,0.754 2.344,5.249 4.681,10.501 7.04,15.743 1.558,3.464 5.523,5.451 8.946,4.484 C 3.668,11.973 5.072,10.577 5.306,8.334 5.884,2.808 6.355,-2.729 6.879,-8.361" /></g><g
           transform="translate(108.5365,2.0903)"
           id="g52"><path
             id="path54"
             style="fill:#424143;fill-opacity:1;fill-rule:nonzero;stroke:none"
             d="m 0,0 h -5.952 c 0.521,2.971 1.032,5.893 1.547,8.814 0.312,1.769 0.648,3.533 0.94,5.305 0.572,3.465 3.922,6.527 7.431,6.604 3.597,0.079 7.196,0.018 10.794,0.015 0.107,0 0.213,-0.038 0.364,-0.066 -0.304,-1.736 -0.604,-3.446 -0.921,-5.257 -0.323,0 -0.624,0 -0.925,0 -2.811,0 -5.622,0 -8.434,0 -2.064,0 -2.225,-0.148 -2.482,-2.376 H 13.785 C 13.471,11.274 13.199,9.623 12.853,7.989 12.819,7.827 12.326,7.669 12.045,7.667 8.785,7.645 5.524,7.631 2.263,7.671 1.551,7.68 1.309,7.475 1.199,6.768 0.851,4.526 0.414,2.298 0,0" /></g><g
           transform="translate(22.9914,22.8322)"
           id="g56"><path
             id="path58"
             style="fill:#424143;fill-opacity:1;fill-rule:nonzero;stroke:none"
             d="m 0,0 c -0.315,-1.812 -0.615,-3.541 -0.925,-5.327 h -5.279 c -1.433,0 -2.866,0 -4.3,0 -1.76,0 -2.259,-0.525 -2.201,-2.408 h 11.357 c -0.329,-1.836 -0.639,-3.566 -0.959,-5.354 -1.979,0 -3.915,0 -5.85,0 -1.602,0 -3.205,-0.035 -4.805,0.017 -0.657,0.022 -0.863,-0.219 -0.961,-0.824 -0.37,-2.27 -0.788,-4.531 -1.194,-6.835 h -5.96 c 0.311,1.77 0.608,3.479 0.911,5.187 0.549,3.093 1.049,6.197 1.667,9.277 0.698,3.486 4.153,6.253 7.701,6.265 C -7.482,0.009 -4.166,0 -0.85,0 -0.601,0 -0.352,0 0,0" /></g><g
           transform="translate(31.0278,22.7954)"
           id="g60"><path
             id="path62"
             style="fill:#424143;fill-opacity:1;fill-rule:nonzero;stroke:none"
             d="m 0,0 c -0.604,-3.433 -1.196,-6.801 -1.791,-10.169 -0.239,-1.353 -0.496,-2.703 -0.723,-4.058 -0.135,-0.809 0.224,-1.224 1.059,-1.229 2.22,-0.01 4.439,-0.003 6.659,-0.003 0.304,0 0.608,0 0.997,0 -0.288,-1.676 -0.547,-3.271 -0.856,-4.855 -0.034,-0.173 -0.364,-0.41 -0.557,-0.411 -2.781,-0.023 -5.566,-0.096 -8.343,0.018 -3.338,0.136 -5.477,3.093 -4.881,6.685 0.752,4.538 1.586,9.062 2.388,13.591 0.024,0.137 0.085,0.266 0.139,0.431 z" /></g></g></g></g></svg>